# xmcd CD database file
# Generated: Mon Jun 11 14:08:02 2001 by KSCD
# 
# Track frame offsets:
#       150
#       14005
#       26380
#       43677
#       57202
#       71517
#       87552
#       101457
#       123057
#       133640
#       148267
#       180185
#       192887
#       205530
#
# Disc length: 3066 seconds
#
# Revision: 2
# Processed by: cddbd v1.4b41PL2 Copyright (c) Steve Scherf et al.
# Submitted via: Kscd 1.3.0
#
DISCID=ba0bf80e
DTITLE=Slo' Tom and the Horseshit Heroes - Liquor's My Lover
DYEAR=1900
DGENRE=
TTITLE0=Liquor's My Lover
TTITLE1=Eastbound and Down
TTITLE2=A Bottle Made Me an Offer
TTITLE3=Suddenly
TTITLE4=Eye to Eye with Nothing
TTITLE5=Chops' Song
TTITLE6=The One I Love (Is Not My Lover)
TTITLE7=Crazy Train
TTITLE8=Traditional
TTITLE9=Curve of the Earth
TTITLE10=Sunday Morning Coming Down - Busted
TTITLE11=Questioningly
TTITLE12=Gotta Get Drunk
TTITLE13=Mountain Man
EXTD=
EXTT0=
EXTT1=
EXTT2=
EXTT3=
EXTT4=
EXTT5=
EXTT6=
EXTT7=
EXTT8=
EXTT9=
EXTT10=
EXTT11=
EXTT12=
EXTT13=
PLAYORDER=
